<svg width="24" height="24" viewBox="0 0 24 24" fill="none" xmlns="http://www.w3.org/2000/svg">
<g clip-path="url(#clip0_2_2880)">
<path d="M12.1421 15.5758C12.0605 15.6146 11.9658 15.6146 11.8843 15.5758L6.30251 12.9204C6.03712 12.7942 5.76729 13.0852 5.91325 13.3403L11.7528 23.5454C11.868 23.7467 12.1584 23.7467 12.2736 23.5454L18.1133 13.3403C18.2593 13.0852 17.9894 12.7942 17.724 12.9204L12.1421 15.5758ZM9.3756 16.55C9.22964 16.2949 9.49948 16.0038 9.76487 16.1301L11.8843 17.1384C11.9658 17.1772 12.0605 17.1772 12.1421 17.1384L14.2617 16.1301C14.5271 16.0038 14.7969 16.2949 14.6509 16.55L12.2736 20.7043C12.1584 20.9057 11.868 20.9057 11.7528 20.7043L9.3756 16.55Z" fill="url(#paint0_linear_2_2880)"/>
<path d="M18.1723 11.13C18.2778 11.08 18.3182 10.9506 18.26 10.8494L12.1866 0.301036C12.1096 0.167427 11.9168 0.167429 11.8399 0.301039L5.76668 10.8494C5.70843 10.9506 5.74887 11.08 5.85439 11.13L11.9276 14.0067C11.9818 14.0324 12.0447 14.0324 12.0989 14.0067L18.1723 11.13ZM11.8399 3.12892C11.9168 2.99531 12.1096 2.99531 12.1866 3.12892L15.3186 8.56867C15.4164 8.73855 15.2368 8.93312 15.0597 8.84921L12.0989 7.4468C12.0447 7.42113 11.9818 7.42113 11.9276 7.4468L8.96698 8.8492C8.78982 8.93312 8.61023 8.73854 8.70804 8.56866L11.8399 3.12892ZM11.9276 9.00815C11.9818 8.98248 12.0447 8.98248 12.0989 9.00815L15.3456 10.5461C15.4981 10.6184 15.4981 10.8354 15.3456 10.9076L12.0989 12.4454C12.0447 12.4711 11.9818 12.4711 11.9276 12.4454L8.68107 10.9076C8.52856 10.8354 8.52856 10.6184 8.68106 10.5461L11.9276 9.00815Z" fill="url(#paint1_linear_2_2880)"/>
</g>
<defs>
<linearGradient id="paint0_linear_2_2880" x1="6.11775" y1="13.275" x2="19.9071" y2="17.1657" gradientUnits="userSpaceOnUse">
<stop stop-color="#6763FD"/>
<stop offset="1" stop-color="#B84EF1"/>
</linearGradient>
<linearGradient id="paint1_linear_2_2880" x1="6.31596" y1="0.936487" x2="20.0209" y2="3.99347" gradientUnits="userSpaceOnUse">
<stop stop-color="#6763FD"/>
<stop offset="1" stop-color="#B84EF1"/>
</linearGradient>
<clipPath id="clip0_2_2880">
<rect width="24" height="24" fill="white"/>
</clipPath>
</defs>
</svg>
