<svg width="24" height="24" viewBox="0 0 24 24" fill="none" xmlns="http://www.w3.org/2000/svg">
<path d="M21.1667 13H2.83333C2.37333 13 2 12.552 2 12C2 11.448 2.37333 11 2.83333 11H21.1667C21.6267 11 22 11.448 22 12C22 12.552 21.6267 13 21.1667 13Z" fill="white"/>
<path d="M21.1667 5H2.83333C2.37333 5 2 4.552 2 4C2 3.448 2.37333 3 2.83333 3H21.1667C21.6267 3 22 3.448 22 4C22 4.552 21.6267 5 21.1667 5Z" fill="white"/>
<path d="M21.1667 21H2.83333C2.37333 21 2 20.552 2 20C2 19.448 2.37333 19 2.83333 19H21.1667C21.6267 19 22 19.448 22 20C22 20.552 21.6267 21 21.1667 21Z" fill="white"/>
</svg>
